<svg width="2707" height="1603" xmlns="http://www.w3.org/2000/svg" xmlns:xlink="http://www.w3.org/1999/xlink" overflow="hidden"><defs><clipPath id="clip0"><rect x="499" y="343" width="2707" height="1603"/></clipPath></defs><g clip-path="url(#clip0)" transform="translate(-499 -343)"><path d="M502.5 453.501C502.5 429.752 521.752 410.5 545.501 410.5L797.499 410.5C821.248 410.5 840.5 429.752 840.5 453.501L840.5 625.499C840.5 649.248 821.248 668.5 797.499 668.5L545.501 668.5C521.752 668.5 502.5 649.248 502.5 625.499Z" stroke="#000000" stroke-width="6.875" stroke-miterlimit="8" stroke-dasharray="55 20.625" fill="none" fill-rule="evenodd"/><text font-family="SimSun,SimSun_MSFontService,sans-serif" font-weight="400" font-size="64" transform="matrix(1 0 0 1 606.889 563)">输入</text><path d="M1746.5 453.501C1746.5 429.752 1765.75 410.5 1789.5 410.5L2041.5 410.5C2065.25 410.5 2084.5 429.752 2084.5 453.501L2084.5 625.499C2084.5 649.248 2065.25 668.5 2041.5 668.5L1789.5 668.5C1765.75 668.5 1746.5 649.248 1746.5 625.499Z" stroke="#000000" stroke-width="6.875" stroke-miterlimit="8" stroke-dasharray="55 20.625" fill="none" fill-rule="evenodd"/><text font-family="SimSun,SimSun_MSFontService,sans-serif" font-weight="400" font-size="64" transform="matrix(1 0 0 1 1850.74 525)">编码<tspan font-size="64" x="-32.0834" y="77">数据包</tspan></text><path d="M1.36933e-06-3.4375 899.159-3.43714 899.159 3.43786-1.36933e-06 3.4375ZM873.389-19.0106 905.98 0.0003603 873.389 19.0113C871.75 19.9678 869.645 19.4139 868.688 17.7741 867.732 16.1342 868.286 14.0294 869.925 13.0728L897.425-2.96888 897.425 2.9696 869.925-13.0721C868.286-14.0287 867.732-16.1335 868.688-17.7734 869.645-19.4132 871.75-19.9671 873.389-19.0106Z" transform="matrix(1 0 0 -1 840.5 539.5)"/><path d="M2732.5 1296.33C2732.5 1272.68 2751.68 1253.5 2775.33 1253.5L3027.67 1253.5C3051.32 1253.5 3070.5 1272.68 3070.5 1296.33L3070.5 1467.67C3070.5 1491.32 3051.32 1510.5 3027.67 1510.5L2775.33 1510.5C2751.68 1510.5 2732.5 1491.32 2732.5 1467.67Z" stroke="#000000" stroke-width="6.875" stroke-miterlimit="8" stroke-dasharray="55 20.625" fill="none" fill-rule="evenodd"/><text font-family="Times New Roman,Times New Roman_MSFontService,sans-serif" font-weight="400" font-size="64" transform="matrix(1 0 0 1 2791.94 1406)">Filter <tspan font-family="SimSun,SimSun_MSFontService,sans-serif" font-size="64" x="154.688" y="0">帧</tspan></text><path d="M1746.5 1651.33C1746.5 1627.68 1765.68 1608.5 1789.33 1608.5L2041.67 1608.5C2065.32 1608.5 2084.5 1627.68 2084.5 1651.33L2084.5 1822.67C2084.5 1846.32 2065.32 1865.5 2041.67 1865.5L1789.33 1865.5C1765.68 1865.5 1746.5 1846.32 1746.5 1822.67Z" stroke="#000000" stroke-width="6.875" stroke-miterlimit="8" stroke-dasharray="55 20.625" fill="none" fill-rule="evenodd"/><text font-family="SimSun,SimSun_MSFontService,sans-serif" font-weight="400" font-size="64" transform="matrix(1 0 0 1 1850.74 1723)">编码<tspan font-size="64" x="-32.0834" y="77">数据包</tspan></text><path d="M502.5 1646.33C502.5 1622.68 521.677 1603.5 545.334 1603.5L797.666 1603.5C821.323 1603.5 840.5 1622.68 840.5 1646.33L840.5 1817.67C840.5 1841.32 821.323 1860.5 797.666 1860.5L545.334 1860.5C521.677 1860.5 502.5 1841.32 502.5 1817.67Z" stroke="#000000" stroke-width="6.875" stroke-miterlimit="8" stroke-dasharray="55 20.625" fill="none" fill-rule="evenodd"/><text font-family="SimSun,SimSun_MSFontService,sans-serif" font-weight="400" font-size="64" transform="matrix(1 0 0 1 606.889 1756)">输出</text><path d="M2084.5 536.062 2139.5 536.062 2139.5 542.937 2084.5 542.937ZM2160.12 536.062 2215.12 536.062 2215.12 542.937 2160.12 542.937ZM2235.75 536.062 2290.75 536.062 2290.75 542.937 2235.75 542.937ZM2311.38 536.062 2366.38 536.062 2366.38 542.937 2311.38 542.937ZM2387 536.062 2442 536.062 2442 542.937 2387 542.937ZM2462.62 536.062 2517.62 536.062 2517.62 542.937 2462.62 542.937ZM2538.25 536.062 2593.25 536.062 2593.25 542.937 2538.25 542.937ZM2613.88 536.062 2668.88 536.062 2668.88 542.937 2613.88 542.937ZM2689.5 536.062 2744.5 536.062 2744.5 542.937 2689.5 542.937ZM2765.12 536.062 2820.12 536.062 2820.12 542.937 2765.12 542.937ZM2840.75 536.062 2895.75 536.062 2895.75 542.937 2840.75 542.937ZM2909.88 549.432 2909.88 604.432 2903.01 604.432 2903.01 549.432ZM2909.88 625.057 2909.88 680.057 2903.01 680.057 2903.01 625.057ZM2909.88 700.682 2909.88 755.682 2903.01 755.682 2903.01 700.682ZM2925.45 733.506 2906.44 766.096 2887.43 733.506C2886.48 731.866 2887.03 729.761 2888.67 728.805 2890.31 727.848 2892.41 728.402 2893.37 730.042L2909.41 757.542 2903.47 757.542 2919.52 730.042C2920.47 728.402 2922.58 727.848 2924.22 728.805 2925.86 729.761 2926.41 731.866 2925.45 733.506Z"/><path d="M1746.44 1740.35 847.279 1734.98 847.32 1728.1 1746.48 1733.48ZM872.96 1750.71 840.484 1731.5 873.187 1712.68C874.833 1711.74 876.934 1712.3 877.881 1713.95 878.828 1715.59 878.261 1717.7 876.616 1718.64L849.02 1734.52 849.056 1728.58 876.46 1744.79C878.094 1745.75 878.635 1747.86 877.669 1749.5 876.702 1751.13 874.594 1751.67 872.96 1750.71Z"/><text font-family="Times New Roman,Times New Roman_MSFontService,sans-serif" font-weight="400" font-size="83" transform="matrix(1 0 0 1 1000.16 469)">Demuxer(<tspan font-family="DengXian,DengXian_MSFontService,sans-serif" font-size="83" x="334.583" y="0">解封装</tspan><tspan font-size="83" x="582.083" y="0">) </tspan><tspan font-size="83" x="91.6937" y="1193">muxer(</tspan><tspan font-family="DengXian,DengXian_MSFontService,sans-serif" font-size="83" x="330.027" y="1193">封装</tspan><tspan font-size="83" x="495.027" y="1193">) </tspan><tspan font-size="83" x="1167.85" y="-21">Decoder(</tspan><tspan font-family="DengXian,DengXian_MSFontService,sans-serif" font-size="83" x="1474.93" y="-21">解码</tspan><tspan font-size="83" x="1639.93" y="-21">)</tspan><tspan font-size="83" x="1180.58" y="1405">Encoder(</tspan><tspan font-family="DengXian,DengXian_MSFontService,sans-serif" font-size="83" x="1483.08" y="1405">编码</tspan><tspan font-size="83" x="1648.08" y="1405">)</tspan></text><path d="M1918.94 668.5 1918.94 723.5 1912.06 723.5 1912.06 668.5ZM1918.94 744.125 1918.94 799.125 1912.06 799.125 1912.06 744.125ZM1918.94 819.75 1918.94 874.75 1912.06 874.75 1912.06 819.75ZM1918.94 895.375 1918.94 950.375 1912.06 950.375 1912.06 895.375ZM1918.94 971 1918.94 1026 1912.06 1026 1912.06 971ZM1918.94 1046.63 1918.94 1101.63 1912.06 1101.63 1912.06 1046.63ZM1918.94 1122.25 1918.94 1177.25 1912.06 1177.25 1912.06 1122.25ZM1918.94 1197.88 1918.94 1252.88 1912.06 1252.88 1912.06 1197.88ZM1918.94 1273.5 1918.94 1328.5 1912.06 1328.5 1912.06 1273.5ZM1918.94 1349.13 1918.94 1404.13 1912.06 1404.13 1912.06 1349.13ZM1918.94 1424.75 1918.94 1479.75 1912.06 1479.75 1912.06 1424.75ZM1918.94 1500.38 1918.94 1555.38 1912.06 1555.38 1912.06 1500.38ZM1918.94 1576 1918.94 1602.11 1912.06 1602.11 1912.06 1576ZM1934.51 1576.34 1915.5 1608.93 1896.49 1576.34C1895.53 1574.7 1896.09 1572.59 1897.73 1571.64 1899.37 1570.68 1901.47 1571.23 1902.43 1572.87L1918.47 1600.37 1912.53 1600.37 1928.57 1572.87C1929.53 1571.23 1931.63 1570.68 1933.27 1571.64 1934.91 1572.59 1935.47 1574.7 1934.51 1576.34Z"/><text font-family="Times New Roman,Times New Roman_MSFontService,sans-serif" font-weight="400" font-size="83" transform="matrix(6.12323e-17 1 -1 6.12323e-17 1774.98 845)">Streamcopy </text><text font-family="DengXian,DengXian_MSFontService,sans-serif" font-weight="400" font-size="83" writing-mode="tb-rl" transform="matrix(1 2.95822e-25 -2.95822e-25 1 1778.98 1260)" x="23.9922" y="17.5078">方法</text><path d="M2737.5 809.334C2737.5 785.677 2756.68 766.5 2780.33 766.5L3032.67 766.5C3056.32 766.5 3075.5 785.677 3075.5 809.334L3075.5 980.666C3075.5 1004.32 3056.32 1023.5 3032.67 1023.5L2780.33 1023.5C2756.68 1023.5 2737.5 1004.32 2737.5 980.666Z" stroke="#000000" stroke-width="6.875" stroke-miterlimit="8" stroke-dasharray="55 20.625" fill="none" fill-rule="evenodd"/><text font-family="SimSun,SimSun_MSFontService,sans-serif" font-weight="400" font-size="64" transform="matrix(1 0 0 1 2809.55 919)">解码帧</text><path d="M3.43686-0.0661733 4.49564 54.9236-2.37809 55.056-3.43686 0.0661733ZM4.89268 75.5448 5.95145 130.535-0.922277 130.667-1.98105 75.6772ZM6.34849 151.156 7.40726 206.146 0.533535 206.278-0.525237 151.288ZM22.807 196.977 4.42701 229.927-15.2077 197.709C-16.1957 196.088-15.6824 193.973-14.0613 192.985-12.4401 191.997-10.325 192.51-9.33705 194.131L7.23103 221.317 1.29365 221.432 16.803 193.628C17.7278 191.97 19.8216 191.376 21.4796 192.3 23.1375 193.225 23.7319 195.319 22.807 196.977Z" transform="matrix(-1 0 0 1 2905.93 1023.5)"/><path d="M2905.45 1510.5 2905.45 1565.5 2898.58 1565.5 2898.58 1510.5ZM2905.45 1586.12 2905.45 1641.12 2898.58 1641.12 2898.58 1586.12ZM2905.45 1661.75 2905.45 1716.75 2898.58 1716.75 2898.58 1661.75ZM2901.72 1740.52 2846.72 1740.52 2846.72 1733.64 2901.72 1733.64ZM2826.1 1740.52 2771.1 1740.52 2771.1 1733.64 2826.1 1733.64ZM2750.47 1740.52 2695.47 1740.52 2695.47 1733.64 2750.47 1733.64ZM2674.85 1740.52 2619.85 1740.52 2619.85 1733.64 2674.85 1733.64ZM2599.22 1740.52 2544.22 1740.52 2544.22 1733.64 2599.22 1733.64ZM2523.6 1740.52 2468.6 1740.52 2468.6 1733.64 2523.6 1733.64ZM2447.97 1740.52 2392.97 1740.52 2392.97 1733.64 2447.97 1733.64ZM2372.35 1740.52 2317.35 1740.52 2317.35 1733.64 2372.35 1733.64ZM2296.72 1740.52 2241.72 1740.52 2241.72 1733.64 2296.72 1733.64ZM2221.1 1740.52 2166.1 1740.52 2166.1 1733.64 2221.1 1733.64ZM2145.47 1740.52 2091.3 1740.52 2091.3 1733.64 2145.47 1733.64ZM2117.07 1756.09 2084.48 1737.08 2117.07 1718.07C2118.71 1717.11 2120.82 1717.67 2121.78 1719.31 2122.73 1720.95 2122.18 1723.05 2120.54 1724.01L2093.04 1740.05 2093.04 1734.11 2120.54 1750.15C2122.18 1751.11 2122.73 1753.21 2121.78 1754.85 2120.82 1756.49 2118.71 1757.05 2117.07 1756.09Z"/><path d="M2898.58 1253.5 2898.58 1198.5 2905.45 1198.5 2905.45 1253.5ZM2898.58 1177.88 2898.58 1171 2902.02 1174.44 2853.89 1174.44 2853.89 1167.56 2905.45 1167.56 2905.45 1177.88ZM2833.27 1174.44 2778.27 1174.44 2778.27 1167.56 2833.27 1167.56ZM2757.64 1174.44 2702.64 1174.44 2702.64 1167.56 2757.64 1167.56ZM2682.02 1174.44 2627.02 1174.44 2627.02 1167.56 2682.02 1167.56ZM2606.39 1174.44 2551.39 1174.44 2551.39 1167.56 2606.39 1167.56ZM2530.77 1174.44 2475.77 1174.44 2475.77 1167.56 2530.77 1167.56ZM2455.14 1174.44 2408.78 1174.44 2412.22 1171 2412.22 1179.64 2405.35 1179.64 2405.35 1167.56 2455.14 1167.56ZM2412.22 1200.27 2412.22 1255.27 2405.35 1255.27 2405.35 1200.27ZM2412.22 1275.89 2412.22 1330.89 2405.35 1330.89 2405.35 1275.89ZM2412.22 1351.52 2412.22 1406.52 2405.35 1406.52 2405.35 1351.52ZM2412.22 1427.14 2412.22 1482.14 2405.35 1482.14 2405.35 1427.14ZM2412.22 1502.77 2412.22 1557.77 2405.35 1557.77 2405.35 1502.77ZM2412.22 1578.39 2412.22 1633.39 2405.35 1633.39 2405.35 1578.39ZM2412.22 1654.02 2412.22 1709.02 2405.35 1709.02 2405.35 1654.02ZM2412.22 1729.64 2412.22 1740.86 2361.56 1740.86 2361.56 1733.98 2408.78 1733.98 2405.35 1737.42 2405.35 1729.64ZM2340.93 1740.86 2285.93 1740.86 2285.93 1733.98 2340.93 1733.98ZM2265.31 1740.86 2210.31 1740.86 2210.31 1733.98 2265.31 1733.98ZM2189.68 1740.86 2134.68 1740.86 2134.68 1733.98 2189.68 1733.98ZM2114.06 1740.86 2091.31 1740.86 2091.31 1733.98 2114.06 1733.98ZM2117.07 1756.43 2084.48 1737.42 2117.07 1718.41C2118.71 1717.45 2120.82 1718.01 2121.78 1719.65 2122.73 1721.29 2122.18 1723.39 2120.54 1724.35L2093.04 1740.39 2093.04 1734.45 2120.54 1750.49C2122.18 1751.45 2122.73 1753.55 2121.78 1755.19 2120.82 1756.83 2118.71 1757.39 2117.07 1756.43Z"/><text font-family="Times New Roman,Times New Roman_MSFontService,sans-serif" font-weight="400" font-size="83" transform="matrix(1 -2.44929e-16 2.44929e-16 1 2977.4 1169)">Filter</text></g></svg>